HIERARCHY
ROOT Hips
{
    OFFSET 0.000 0 0.000
    CHANNELS 6 Xposition Yposition Zposition Zrotation Xrotation Yrotation
    JOINT RightUpLeg
    {
        OFFSET -10.280 -1.737 0.000
        CHANNELS 3 Zrotation Xrotation Yrotation
        JOINT RightLeg
        {
            OFFSET 0.000 -45.650 0.000
            CHANNELS 3 Zrotation Xrotation Yrotation
            JOINT RightFoot
            {
                OFFSET 0.000 -45.650 0.000
                CHANNELS 3 Zrotation Xrotation Yrotation
                End Site
                {
                    OFFSET 0.000 -8.080 18.389
                }
            }
        }
    }
    JOINT LeftUpLeg
    {
        OFFSET 10.280 -1.737 0.000
        CHANNELS 3 Zrotation Xrotation Yrotation
        JOINT LeftLeg
        {
            OFFSET 0.000 -45.650 0.000
            CHANNELS 3 Zrotation Xrotation Yrotation
            JOINT LeftFoot
            {
                OFFSET 0.000 -45.650 0.000
                CHANNELS 3 Zrotation Xrotation Yrotation
                End Site
                {
                    OFFSET 0.000 -8.080 18.389
                }
            }
        }
    }
    JOINT Spine
    {
        OFFSET 0.000 15.634 0.000
        CHANNELS 3 Zrotation Xrotation Yrotation
        JOINT Spine1
        {
            OFFSET 0.000 10.620 0.000
            CHANNELS 3 Zrotation Xrotation Yrotation
            JOINT Spine2
            {
                OFFSET 0.000 11.058 0.000
                CHANNELS 3 Zrotation Xrotation Yrotation
                JOINT Spine3
                {
                    OFFSET 0.000 10.620 0.000
                    CHANNELS 3 Zrotation Xrotation Yrotation
                    JOINT Neck
                    {
                        OFFSET 0.000 11.351 0.000
                        CHANNELS 3 Zrotation Xrotation Yrotation
                        JOINT Head
                        {
                            OFFSET 0.000 10.250 0.000
                            CHANNELS 3 Zrotation Xrotation Yrotation
                            End Site
                            {
                                OFFSET 0.000 17.430 0.000
                            }
                        }
                    }
                    JOINT RightShoulder
                    {
                        OFFSET -3.443 7.567 0.000
                        CHANNELS 3 Zrotation Xrotation Yrotation
                        JOINT RightArm
                        {
                            OFFSET -13.772 0.000 0.000
                            CHANNELS 3 Zrotation Xrotation Yrotation
                            JOINT RightForeArm
                            {
                                OFFSET -28.780 0.000 0.000
                                CHANNELS 3 Zrotation Xrotation Yrotation
                                JOINT RightHand
                                {
                                    OFFSET -28.260 0.000 0.000
                                    CHANNELS 3 Zrotation Xrotation Yrotation
                                    JOINT RightHandThumb1
                                    {
                                        OFFSET -2.702 0.206 3.388
                                        CHANNELS 3 Zrotation Xrotation Yrotation
                                        JOINT RightHandThumb2
                                        {
                                            OFFSET -3.998 0.000 0.000
                                            CHANNELS 3 Zrotation Xrotation Yrotation
                                            JOINT RightHandThumb3
                                            {
                                                OFFSET -2.778 0.000 0.000
                                                CHANNELS 3 Zrotation Xrotation Yrotation
                                                End Site
                                                {
                                                    OFFSET -2.382 0.000 0.000
                                                }
                                            }
                                        }
                                    }
                                    JOINT RightInHandIndex
                                    {
                                        OFFSET -3.500 0.552 2.148
                                        CHANNELS 3 Zrotation Xrotation Yrotation
                                        JOINT RightHandIndex1
                                        {
                                            OFFSET -5.664 -0.099 1.085
                                            CHANNELS 3 Zrotation Xrotation Yrotation
                                            JOINT RightHandIndex2
                                            {
                                                OFFSET -3.930 0.000 0.000
                                                CHANNELS 3 Zrotation Xrotation Yrotation
                                                JOINT RightHandIndex3
                                                {
                                                    OFFSET -2.228 0.000 0.000
                                                    CHANNELS 3 Zrotation Xrotation Yrotation
                                                    End Site
                                                    {
                                                        OFFSET -1.960 0.000 0.000
                                                    }
                                                }
                                            }
                                        }
                                    }
                                    JOINT RightInHandMiddle
                                    {
                                        OFFSET -3.672 0.562 0.822
                                        CHANNELS 3 Zrotation Xrotation Yrotation
                                        JOINT RightHandMiddle1
                                        {
                                            OFFSET -5.618 -0.091 0.341
                                            CHANNELS 3 Zrotation Xrotation Yrotation
                                            JOINT RightHandMiddle2
                                            {
                                                OFFSET -4.288 0.000 0.000
                                                CHANNELS 3 Zrotation Xrotation Yrotation
                                                JOINT RightHandMiddle3
                                                {
                                                    OFFSET -2.688 0.000 0.000
                                                    CHANNELS 3 Zrotation Xrotation Yrotation
                                                    End Site
                                                    {
                                                        OFFSET -2.144 0.000 0.000
                                                    }
                                                }
                                            }
                                        }
                                    }
                                    JOINT RightInHandRing
                                    {
                                        OFFSET -3.654 0.584 -0.140
                                        CHANNELS 3 Zrotation Xrotation Yrotation
                                        JOINT RightHandRing1
                                        {
                                            OFFSET -5.032 -0.024 -0.520
                                            CHANNELS 3 Zrotation Xrotation Yrotation
                                            JOINT RightHandRing2
                                            {
                                                OFFSET -3.737 0.000 0.000
                                                CHANNELS 3 Zrotation Xrotation Yrotation
                                                JOINT RightHandRing3
                                                {
                                                    OFFSET -2.593 0.000 0.000
                                                    CHANNELS 3 Zrotation Xrotation Yrotation
                                                    End Site
                                                    {
                                                        OFFSET -2.016 0.000 0.000
                                                    }
                                                }
                                            }
                                        }
                                    }
                                    JOINT RightInHandPinky
                                    {
                                        OFFSET -3.432 0.510 -1.305
                                        CHANNELS 3 Zrotation Xrotation Yrotation
                                        JOINT RightHandPinky1
                                        {
                                            OFFSET -4.496 -0.024 -1.184
                                            CHANNELS 3 Zrotation Xrotation Yrotation
                                            JOINT RightHandPinky2
                                            {
                                                OFFSET -2.993 0.000 0.000
                                                CHANNELS 3 Zrotation Xrotation Yrotation
                                                JOINT RightHandPinky3
                                                {
                                                    OFFSET -1.891 0.000 0.000
                                                    CHANNELS 3 Zrotation Xrotation Yrotation
                                                    End Site
                                                    {
                                                        OFFSET -1.786 0.000 0.000
                                                    }
                                                }
                                            }
                                        }
                                    }
                                }
                            }
                        }
                    }
                    JOINT LeftShoulder
                    {
                        OFFSET 3.443 7.567 0.000
                        CHANNELS 3 Zrotation Xrotation Yrotation
                        JOINT LeftArm
                        {
                            OFFSET 13.772 0.000 0.000
                            CHANNELS 3 Zrotation Xrotation Yrotation
                            JOINT LeftForeArm
                            {
                                OFFSET 28.780 0.000 0.000
                                CHANNELS 3 Zrotation Xrotation Yrotation
                                JOINT LeftHand
                                {
                                    OFFSET 28.260 0.000 0.000
                                    CHANNELS 3 Zrotation Xrotation Yrotation
                                    JOINT LeftHandThumb1
                                    {
                                        OFFSET 2.702 0.206 3.388
                                        CHANNELS 3 Zrotation Xrotation Yrotation
                                        JOINT LeftHandThumb2
                                        {
                                            OFFSET 3.998 0.000 0.000
                                            CHANNELS 3 Zrotation Xrotation Yrotation
                                            JOINT LeftHandThumb3
                                            {
                                                OFFSET 2.778 0.000 0.000
                                                CHANNELS 3 Zrotation Xrotation Yrotation
                                                End Site
                                                {
                                                    OFFSET 2.382 0.000 0.000
                                                }
                                            }
                                        }
                                    }
                                    JOINT LeftInHandIndex
                                    {
                                        OFFSET 3.500 0.552 2.148
                                        CHANNELS 3 Zrotation Xrotation Yrotation
                                        JOINT LeftHandIndex1
                                        {
                                            OFFSET 5.664 -0.099 1.085
                                            CHANNELS 3 Zrotation Xrotation Yrotation
                                            JOINT LeftHandIndex2
                                            {
                                                OFFSET 3.930 0.000 0.000
                                                CHANNELS 3 Zrotation Xrotation Yrotation
                                                JOINT LeftHandIndex3
                                                {
                                                    OFFSET 2.228 0.000 0.000
                                                    CHANNELS 3 Zrotation Xrotation Yrotation
                                                    End Site
                                                    {
                                                        OFFSET 1.960 0.000 0.000
                                                    }
                                                }
                                            }
                                        }
                                    }
                                    JOINT LeftInHandMiddle
                                    {
                                        OFFSET 3.672 0.562 0.822
                                        CHANNELS 3 Zrotation Xrotation Yrotation
                                        JOINT LeftHandMiddle1
                                        {
                                            OFFSET 5.618 -0.091 0.341
                                            CHANNELS 3 Zrotation Xrotation Yrotation
                                            JOINT LeftHandMiddle2
                                            {
                                                OFFSET 4.288 0.000 0.000
                                                CHANNELS 3 Zrotation Xrotation Yrotation
                                                JOINT LeftHandMiddle3
                                                {
                                                    OFFSET 2.688 0.000 0.000
                                                    CHANNELS 3 Zrotation Xrotation Yrotation
                                                    End Site
                                                    {
                                                        OFFSET 2.144 0.000 0.000
                                                    }
                                                }
                                            }
                                        }
                                    }
                                    JOINT LeftInHandRing
                                    {
                                        OFFSET 3.654 0.584 -0.140
                                        CHANNELS 3 Zrotation Xrotation Yrotation
                                        JOINT LeftHandRing1
                                        {
                                            OFFSET 5.032 -0.024 -0.520
                                            CHANNELS 3 Zrotation Xrotation Yrotation
                                            JOINT LeftHandRing2
                                            {
                                                OFFSET 3.737 0.000 0.000
                                                CHANNELS 3 Zrotation Xrotation Yrotation
                                                JOINT LeftHandRing3
                                                {
                                                    OFFSET 2.593 0.000 0.000
                                                    CHANNELS 3 Zrotation Xrotation Yrotation
                                                    End Site
                                                    {
                                                        OFFSET 2.016 0.000 0.000
                                                    }
                                                }
                                            }
                                        }
                                    }
                                    JOINT LeftInHandPinky
                                    {
                                        OFFSET 3.432 0.510 -1.305
                                        CHANNELS 3 Zrotation Xrotation Yrotation
                                        JOINT LeftHandPinky1
                                        {
                                            OFFSET 4.496 -0.024 -1.184
                                            CHANNELS 3 Zrotation Xrotation Yrotation
                                            JOINT LeftHandPinky2
                                            {
                                                OFFSET 2.993 0.000 0.000
                                                CHANNELS 3 Zrotation Xrotation Yrotation
                                                JOINT LeftHandPinky3
                                                {
                                                    OFFSET 1.891 0.000 0.000
                                                    CHANNELS 3 Zrotation Xrotation Yrotation
                                                    End Site
                                                    {
                                                        OFFSET 1.786 0.000 0.000
                                                    }
                                                }
                                            }
                                        }
                                    }
                                }
                            }
                        }
                    }
                }
            }
        }
    }
}
MOTION
Frames: 4
Frame Time: 0.0333
-20.415922 100.808846 94.023079 -1.618306 -3.220910 -4.121379 2.470005 -5.544344 6.268112 -0.000000 22.424900 -0.000000 -0.880731 -11.726299 -19.152357 1.371798 -10.165274 4.321042 0.000000 25.557850 -0.000000 1.910339 -10.675640 3.623943 -0.932818 8.133359 11.263967 -0.083589 2.069939 2.814227 -0.193463 3.427524 4.636293 0.069466 0.216686 -0.643402 0.069580 0.217617 -0.644773 1.643399 3.881574 -11.736440 -1.194314 -8.981089 1.529122 57.539520 33.422237 45.988922 16.354691 -14.924026 35.390575 -19.805901 -19.096350 14.155237 28.184042 10.729352 19.159164 -0.000000 0.000000 -10.000000 -0.000000 0.000000 -10.000000 -0.000000 0.000000 -0.000000 19.981762 0.871897 2.396401 24.000000 0.000000 -0.000000 20.000000 0.000000 -0.000000 -0.000000 0.000000 -0.000000 20.000000 0.000000 -0.000000 24.000000 0.000000 -0.000000 20.000000 0.000000 -0.000000 -0.000000 0.000000 -0.000000 19.974758 -1.025646 -2.819379 24.000000 0.000000 -0.000000 20.000000 0.000000 -0.000000 -0.000000 0.000000 -0.000000 19.781452 -3.009481 -8.305146 24.000000 0.000000 -0.000000 20.000000 0.000000 -0.000000 -2.560088 -10.120955 -13.029853 -77.323517 9.904122 -0.453109 -7.169651 0.941987 -9.320197 3.120321 8.961166 -3.648366 -28.184042 10.729352 -19.159164 -0.000000 0.000000 10.000000 -0.000000 0.000000 10.000000 -0.000000 0.000000 -0.000000 -19.981762 0.871897 -2.396401 -24.000000 0.000000 -0.000000 -20.000000 0.000000 -0.000000 -0.000000 0.000000 -0.000000 -20.000000 0.000000 -0.000000 -24.000000 0.000000 -0.000000 -20.000000 0.000000 -0.000000 -0.000000 0.000000 -0.000000 -19.974758 -1.025646 2.819379 -24.000000 0.000000 -0.000000 -20.000000 0.000000 -0.000000 -0.000000 0.000000 -0.000000 -19.781452 -3.009481 8.305146 -24.000000 0.000000 -0.000000 -20.000000 0.000000 -0.000000 
-20.203173 100.807961 94.048279 -1.562542 -3.087274 -3.949936 2.309478 -5.684730 6.296322 -0.000000 22.460972 0.000000 -0.768964 -11.763839 -19.176563 1.228665 -10.282809 4.408180 -0.000000 25.499069 0.000000 2.010649 -10.650305 3.486853 -0.935452 8.147756 11.207177 -0.084723 2.073904 2.799997 -0.195196 3.434428 4.613589 0.064435 0.216155 -0.630633 0.064538 0.217009 -0.631923 1.542429 3.870359 -11.500385 -1.585002 -9.515736 0.789096 58.545002 33.077766 44.638931 16.958485 -12.449991 36.954525 -19.137075 -19.571177 14.007336 28.184042 10.729352 19.159164 -0.000000 0.000000 -10.000000 -0.000000 0.000000 -10.000000 -0.000000 0.000000 -0.000000 19.981762 0.871897 2.396401 24.000000 0.000000 -0.000000 20.000000 0.000000 -0.000000 -0.000000 0.000000 -0.000000 20.000000 0.000000 -0.000000 24.000000 0.000000 -0.000000 20.000000 0.000000 -0.000000 -0.000000 0.000000 -0.000000 19.974758 -1.025646 -2.819379 24.000000 0.000000 -0.000000 20.000000 0.000000 -0.000000 -0.000000 0.000000 -0.000000 19.781452 -3.009481 -8.305146 24.000000 0.000000 -0.000000 20.000000 0.000000 -0.000000 -2.550342 -10.083115 -13.169073 -77.312424 9.530454 -0.339686 -7.092533 0.844597 -9.127885 2.935024 8.829604 -2.947268 -28.184042 10.729352 -19.159164 -0.000000 0.000000 10.000000 -0.000000 0.000000 10.000000 -0.000000 0.000000 -0.000000 -19.981762 0.871897 -2.396401 -24.000000 0.000000 -0.000000 -20.000000 0.000000 -0.000000 -0.000000 0.000000 -0.000000 -20.000000 0.000000 -0.000000 -24.000000 0.000000 -0.000000 -20.000000 0.000000 -0.000000 -0.000000 0.000000 -0.000000 -19.974758 -1.025646 2.819379 -24.000000 0.000000 -0.000000 -20.000000 0.000000 -0.000000 -0.000000 0.000000 -0.000000 -19.781452 -3.009481 8.305146 -24.000000 0.000000 -0.000000 -20.000000 0.000000 -0.000000 
-19.998911 100.805580 94.070007 -1.517764 -2.961763 -3.899379 2.155041 -5.824026 6.352847 0.000000 22.498613 -0.000000 -0.636924 -11.802549 -19.175785 1.083343 -10.383197 4.452218 0.000000 25.450348 -0.000000 2.118392 -10.643942 3.472928 -0.981248 8.112310 11.209804 -0.096757 2.067396 2.799250 -0.214937 3.424907 4.611835 0.064856 0.216530 -0.629181 0.064960 0.217387 -0.630461 1.549832 3.877053 -11.473915 -2.011739 -9.836155 0.115365 58.997780 32.701077 43.578484 17.522223 -10.348759 38.637459 -17.911282 -20.440718 13.619462 28.184042 10.729352 19.159164 -0.000000 0.000000 -10.000000 -0.000000 0.000000 -10.000000 -0.000000 0.000000 -0.000000 19.981762 0.871897 2.396401 24.000000 0.000000 -0.000000 20.000000 0.000000 -0.000000 -0.000000 0.000000 -0.000000 20.000000 0.000000 -0.000000 24.000000 0.000000 -0.000000 20.000000 0.000000 -0.000000 -0.000000 0.000000 -0.000000 19.974758 -1.025646 -2.819379 24.000000 0.000000 -0.000000 20.000000 0.000000 -0.000000 -0.000000 0.000000 -0.000000 19.781452 -3.009481 -8.305146 24.000000 0.000000 -0.000000 20.000000 0.000000 -0.000000 -2.549443 -10.025152 -13.297580 -77.179504 9.320439 -0.219110 -7.078535 0.862313 -9.008066 2.853103 8.842779 -2.748918 -28.184042 10.729352 -19.159164 -0.000000 0.000000 10.000000 -0.000000 0.000000 10.000000 -0.000000 0.000000 -0.000000 -19.981762 0.871897 -2.396401 -24.000000 0.000000 -0.000000 -20.000000 0.000000 -0.000000 -0.000000 0.000000 -0.000000 -20.000000 0.000000 -0.000000 -24.000000 0.000000 -0.000000 -20.000000 0.000000 -0.000000 -0.000000 0.000000 -0.000000 -19.974758 -1.025646 2.819379 -24.000000 0.000000 -0.000000 -20.000000 0.000000 -0.000000 -0.000000 0.000000 -0.000000 -19.781452 -3.009481 8.305146 -24.000000 0.000000 -0.000000 -20.000000 0.000000 -0.000000 
-19.800354 100.801575 94.089798 -1.527400 -2.835351 -3.955347 2.053086 -5.953730 6.414990 0.000000 22.498173 -0.000000 -0.527614 -11.817224 -18.956881 1.000500 -10.501998 4.519593 -0.000000 25.468412 0.000000 2.239326 -10.677505 3.517422 -1.033101 8.043717 11.200307 -0.111072 2.052628 2.795162 -0.238155 3.401860 4.604516 0.071404 0.218541 -0.629053 0.071518 0.219476 -0.630313 1.672779 3.915735 -11.471811 -2.456866 -9.990406 -0.480278 59.613850 31.795940 42.180428 18.210941 -7.561936 40.680199 -16.563990 -21.746189 13.035017 28.184042 10.729352 19.159164 -0.000000 0.000000 -10.000000 -0.000000 0.000000 -10.000000 -0.000000 0.000000 -0.000000 19.981762 0.871897 2.396401 24.000000 0.000000 -0.000000 20.000000 0.000000 -0.000000 -0.000000 0.000000 -0.000000 20.000000 0.000000 -0.000000 24.000000 0.000000 -0.000000 20.000000 0.000000 -0.000000 -0.000000 0.000000 -0.000000 19.974758 -1.025646 -2.819379 24.000000 0.000000 -0.000000 20.000000 0.000000 -0.000000 -0.000000 0.000000 -0.000000 19.781452 -3.009481 -8.305146 24.000000 0.000000 -0.000000 20.000000 0.000000 -0.000000 -2.594808 -9.998922 -13.434777 -77.030098 9.014831 0.054802 -6.990311 0.938926 -8.930107 2.880760 8.835690 -2.631482 -28.184042 10.729352 -19.159164 -0.000000 0.000000 10.000000 -0.000000 0.000000 10.000000 -0.000000 0.000000 -0.000000 -19.981762 0.871897 -2.396401 -24.000000 0.000000 -0.000000 -20.000000 0.000000 -0.000000 -0.000000 0.000000 -0.000000 -20.000000 0.000000 -0.000000 -24.000000 0.000000 -0.000000 -20.000000 0.000000 -0.000000 -0.000000 0.000000 -0.000000 -19.974758 -1.025646 2.819379 -24.000000 0.000000 -0.000000 -20.000000 0.000000 -0.000000 -0.000000 0.000000 -0.000000 -19.781452 -3.009481 8.305146 -24.000000 0.000000 -0.000000 -20.000000 0.000000 -0.000000 
